<?xml version="1.0" standalone="no"?>
<!DOCTYPE svg PUBLIC "-//W3C//DTD SVG 20010904//EN"
 "http://www.w3.org/TR/2001/REC-SVG-20010904/DTD/svg10.dtd">
<svg version="1.0" xmlns="http://www.w3.org/2000/svg"
 width="117.000000pt" height="117.000000pt" viewBox="0 0 117.000000 117.000000"
 preserveAspectRatio="xMidYMid meet">
<metadata>
Created by potrace 1.14, written by Peter Selinger 2001-2017
</metadata>
<g transform="translate(0.000000,117.000000) scale(0.100000,-0.100000)"
fill="#000000" stroke="none">
<path d="M441 1041 c-11 -11 -22 -17 -26 -13 -8 8 -75 -28 -76 -42 0 -6 -2
-22 -5 -35 -9 -48 61 -111 122 -111 17 0 34 -3 38 -7 4 -5 13 -8 19 -8 7 0 39
-44 71 -98 59 -97 59 -97 62 -185 1 -48 10 -107 18 -131 26 -72 -7 -33 -56 66
-27 56 -53 94 -77 111 -19 15 -56 48 -82 75 -26 26 -50 47 -53 47 -11 0 65
-143 98 -185 32 -42 69 -80 127 -130 36 -32 89 -97 107 -131 11 -20 5 -58 -22
-141 -4 -13 -3 -23 2 -23 6 0 16 22 23 50 7 27 16 47 20 44 4 -2 16 -31 26
-64 9 -33 21 -60 25 -60 12 0 10 14 -17 88 -19 52 -26 94 -28 168 -3 89 -7
108 -42 189 -62 144 -57 195 20 244 59 38 79 72 62 109 -10 23 -45 38 -69 30
-7 -3 -19 2 -26 9 -9 8 -23 11 -36 7 -56 -17 -66 -57 -31 -129 23 -51 34 -125
17 -125 -4 0 -28 35 -54 77 l-46 78 4 88 c4 90 -3 120 -35 144 -24 18 -58 16
-80 -6z m49 -9 c0 -4 -9 -8 -20 -8 -11 0 -20 4 -20 8 0 4 9 8 20 8 11 0 20 -4
20 -8z m53 -47 c2 -14 3 -25 1 -25 -3 0 -34 61 -34 68 0 15 29 -23 33 -43z
m-142 5 c-25 -22 -41 -26 -41 -10 0 11 30 29 50 29 10 0 8 -6 -9 -19z m103 4
c20 -19 28 -51 22 -84 -2 -14 -5 -30 -5 -37 -1 -19 -54 3 -90 39 -38 37 -37
63 2 63 15 -1 27 3 27 7 0 4 -6 8 -12 8 -9 0 -8 4 2 10 21 14 36 12 54 -6z
m-54 -117 c38 -24 38 -27 -3 -18 -48 11 -71 26 -87 56 -12 22 -12 28 0 35 10
6 21 -1 37 -23 13 -17 37 -40 53 -50z m240 19 c0 -2 -7 -7 -16 -10 -8 -3 -12
-2 -9 4 6 10 25 14 25 6z m76 -24 c-10 -2 -22 0 -28 6 -6 6 0 7 19 4 21 -5 23
-7 9 -10z m-117 -44 c0 -33 -2 -38 -9 -23 -12 28 -12 65 0 65 6 0 10 -19 9
-42z m54 25 c-6 -16 -5 -16 10 -5 41 34 42 -21 1 -59 -27 -25 -41 -19 -45 21
-4 46 1 60 21 60 14 0 18 -5 13 -17z m87 -15 c0 -13 -39 -58 -51 -58 -5 0 1
16 12 35 21 35 39 46 39 23z m-240 -291 c11 -14 29 -47 41 -73 l20 -49 -46 45
c-41 40 -115 139 -115 154 0 10 80 -51 100 -77z m181 -119 c10 -37 13 -82 10
-128 -2 -23 -16 0 -45 75 -19 47 -29 95 -32 145 l-4 75 30 -63 c16 -35 34 -82
41 -104z"/>
<path d="M714 656 c-11 -28 1 -51 25 -51 32 0 49 28 32 49 -17 20 -50 21 -57
2z m43 -30 c-4 -9 -13 -13 -21 -10 -17 6 -17 25 -1 36 14 10 29 -8 22 -26z"/>
<path d="M653 269 c-43 -16 -20 -74 25 -62 14 3 22 13 22 28 0 31 -20 45 -47
34z m31 -24 c3 -9 -1 -18 -10 -22 -19 -7 -28 2 -21 22 8 19 23 19 31 0z"/>
</g>
</svg>
